<?xml version="1.0" standalone="no"?>
<!DOCTYPE svg PUBLIC "-//W3C//DTD SVG 20010904//EN"
 "http://www.w3.org/TR/2001/REC-SVG-20010904/DTD/svg10.dtd">
<svg version="1.0" xmlns="http://www.w3.org/2000/svg"
 width="812.000000pt" height="812.000000pt" viewBox="0 0 812.000000 812.000000"
 preserveAspectRatio="xMidYMid meet">
<metadata>
Created by potrace 1.14, written by Peter Selinger 2001-2017
</metadata>
<g transform="translate(0.000000,812.000000) scale(0.100000,-0.100000)"
fill="#000000" stroke="none">
<path d="M3100 7660 c-87 -41 -112 -56 -143 -85 -126 -119 -157 -296 -80 -449
30 -58 125 -156 153 -156 6 0 10 -5 10 -12 0 -6 3 -9 6 -5 3 3 23 -1 44 -8 46
-16 198 -17 243 -2 80 28 172 108 210 182 40 78 53 181 33 255 -4 14 -9 32
-11 40 -2 8 -4 16 -5 18 -2 1 -3 5 -4 10 -6 24 -40 74 -78 113 -44 44 -102 78
-169 99 -39 12 -184 12 -209 0z m186 -226 c76 -41 104 -151 55 -220 -74 -103
-234 -90 -272 23 -15 44 -15 46 -6 98 18 98 131 148 223 99z"/>
<path d="M6185 7053 c-11 -2 -27 -7 -35 -10 -8 -3 -21 -7 -29 -9 -8 -1 -17 -6
-20 -11 -3 -4 -12 -9 -19 -11 -18 -3 -72 -42 -94 -67 -10 -11 -34 -47 -52 -80
-85 -148 -62 -319 59 -441 47 -47 126 -94 159 -94 8 0 18 -4 21 -10 3 -5 44
-8 93 -7 71 2 98 8 145 31 56 27 163 114 152 124 -2 3 1 10 9 16 29 25 59 120
59 191 0 73 -25 166 -49 186 -8 6 -12 15 -9 19 15 24 -150 153 -215 169 -23 5
-153 8 -175 4z m138 -228 c15 -4 27 -11 27 -15 0 -5 9 -12 20 -15 11 -4 18
-11 15 -16 -4 -5 -2 -9 4 -9 15 0 32 -63 28 -101 -6 -58 -36 -102 -87 -129
-27 -15 -130 -21 -130 -8 0 4 -4 8 -10 8 -20 0 -59 43 -74 82 -18 43 -21 108
-6 108 6 0 10 8 10 18 0 21 32 54 75 76 29 15 72 15 128 1z"/>
<path d="M3497 6854 c-2 -2 -100 -6 -218 -9 -433 -10 -449 -12 -476 -65 -19
-36 -11 -83 52 -300 31 -107 59 -204 62 -215 9 -39 11 -50 13 -52 2 -2 3 -6 4
-10 1 -5 5 -14 9 -20 5 -7 6 -13 3 -13 -3 0 1 -18 9 -40 8 -22 12 -40 10 -40
-3 0 2 -17 9 -37 16 -42 56 -174 61 -201 2 -9 4 -18 5 -19 2 -2 4 -7 5 -13 1
-5 3 -11 5 -12 1 -2 3 -12 5 -23 4 -23 10 -46 24 -92 14 -49 32 -54 -234 73
-66 32 -122 58 -125 59 -3 1 -52 24 -110 52 -154 74 -176 79 -227 56 -44 -20
-50 -48 -58 -283 -4 -91 -8 -210 -10 -265 -3 -55 -6 -182 -9 -282 -2 -100 -7
-187 -10 -192 -4 -5 -2 -12 4 -16 6 -4 7 -11 3 -18 -4 -6 -8 -46 -9 -89 -4
-131 -15 -149 -185 -301 -116 -105 -224 -204 -271 -250 -26 -26 -48 -46 -48
-44 0 2 -28 -22 -62 -54 -33 -33 -65 -59 -69 -59 -4 0 -11 -9 -14 -21 -4 -11
-9 -18 -12 -15 -5 5 -28 -15 -160 -141 -24 -24 -46 -43 -47 -43 -2 0 -26 -21
-53 -47 -27 -27 -85 -79 -128 -118 -42 -38 -97 -88 -120 -110 -23 -22 -76 -71
-118 -110 -42 -38 -108 -100 -147 -137 -38 -37 -70 -65 -70 -62 0 2 -29 -24
-65 -58 -36 -35 -88 -83 -116 -108 -106 -95 -178 -170 -192 -197 -18 -35 -12
-92 12 -116 27 -28 93 -32 483 -32 197 0 358 -4 358 -9 0 -5 5 -5 13 0 6 5 39
8 72 7 92 -2 127 -3 165 -3 382 -2 731 -7 736 -12 12 -12 -8 -29 -79 -65 -40
-20 -74 -37 -77 -38 -3 0 -32 -16 -65 -36 -33 -19 -76 -43 -95 -52 -40 -20
-135 -71 -293 -158 -59 -32 -112 -59 -117 -59 -6 0 -10 -4 -10 -10 0 -5 -5
-10 -11 -10 -23 0 -42 -34 -45 -80 -2 -27 1 -52 6 -55 6 -4 8 -11 5 -16 -4 -5
-2 -9 3 -9 5 0 9 -6 9 -13 0 -8 31 -76 68 -153 38 -76 69 -141 70 -144 1 -13
70 -146 80 -152 5 -4 6 -8 2 -8 -14 0 50 -104 75 -123 26 -20 78 -30 78 -16 0
5 3 8 8 7 8 -3 82 40 97 57 6 6 35 31 65 56 30 24 57 47 58 52 2 4 10 7 18 7
8 0 14 4 14 10 0 8 82 70 94 70 12 0 -18 -93 -82 -250 -5 -14 -11 -29 -12 -35
-3 -11 -18 -53 -27 -75 -3 -8 -5 -18 -5 -22 1 -5 -3 -8 -9 -8 -5 0 -7 -5 -4
-10 4 -6 2 -16 -3 -23 -12 -16 -47 -110 -44 -119 1 -5 -3 -8 -8 -8 -5 0 -9 -3
-9 -7 1 -5 0 -10 -1 -13 -1 -3 -3 -12 -5 -20 -2 -8 -33 -90 -69 -183 -35 -92
-61 -167 -58 -167 4 0 3 -4 -3 -8 -5 -4 -23 -47 -40 -96 -28 -87 -38 -151 -26
-171 6 -10 7 -15 10 -34 0 -5 16 -14 35 -21 43 -14 117 2 168 35 21 14 42 25
47 25 5 0 11 3 13 8 4 10 185 122 197 122 5 0 11 7 15 15 3 8 12 15 20 15 8 0
21 6 28 13 17 15 44 32 86 53 17 9 32 20 32 25 0 5 3 8 8 7 4 -2 39 17 77 42
39 24 81 51 95 58 14 7 39 24 57 38 17 13 34 24 36 24 3 0 46 26 97 58 50 31
99 62 108 67 10 6 48 29 84 53 37 23 72 42 78 42 5 0 10 5 10 10 0 6 7 10 15
10 8 0 15 4 15 8 0 4 19 18 43 30 40 21 68 37 91 55 21 15 188 117 192 117 2
0 27 16 54 35 27 19 54 35 60 35 5 0 10 5 10 10 0 6 4 10 9 10 5 0 68 37 140
83 72 45 139 87 148 92 10 6 37 23 60 38 24 15 47 27 53 27 5 0 10 4 10 8 0
15 71 31 94 22 12 -4 53 -43 92 -86 38 -43 79 -87 92 -98 12 -11 22 -22 22
-26 0 -4 25 -33 56 -66 31 -32 83 -87 115 -121 33 -34 59 -64 59 -66 0 -3 26
-32 58 -64 31 -33 91 -97 132 -142 117 -127 232 -252 268 -289 17 -19 32 -35
32 -37 0 -2 15 -19 33 -37 17 -19 66 -71 107 -117 237 -262 290 -303 362 -279
27 9 55 52 63 95 2 10 4 20 5 23 1 3 1 10 0 15 -1 6 -4 42 -5 80 -6 123 -14
248 -20 315 -3 36 -8 97 -10 135 -3 39 -7 106 -11 150 -3 44 -8 100 -10 125
-4 48 -13 190 -18 280 -2 30 -5 55 -6 55 -1 0 -3 45 -5 100 -2 98 10 155 35
155 16 0 100 -44 100 -52 0 -4 4 -8 10 -8 8 0 58 -42 122 -103 10 -9 20 -17
22 -17 2 0 23 -18 47 -40 24 -23 57 -51 72 -63 16 -12 41 -33 55 -47 15 -14
54 -47 87 -75 33 -27 67 -57 75 -65 8 -9 49 -45 90 -80 41 -35 80 -69 87 -74
7 -6 33 -29 59 -51 26 -22 56 -48 66 -58 10 -9 21 -17 25 -17 3 0 15 -8 25
-17 26 -23 85 -18 123 11 40 31 85 74 85 81 0 10 38 43 44 38 3 -4 6 -2 6 3 0
12 47 64 198 219 129 133 152 163 152 206 0 41 -51 92 -135 134 -33 16 -93 49
-133 72 -40 24 -76 43 -80 43 -4 0 -18 9 -32 20 -14 11 -32 20 -42 20 -9 0
-18 4 -20 8 -1 5 -52 35 -113 67 -60 32 -138 76 -172 97 -35 21 -63 35 -63 31
0 -4 -6 2 -14 12 -8 11 -12 23 -9 28 8 13 140 76 147 70 3 -4 6 -1 6 5 0 7 5
12 10 12 15 0 373 150 385 161 5 5 14 9 21 9 6 0 56 21 110 47 55 25 105 46
112 46 6 0 12 4 12 8 0 4 12 10 27 14 14 3 67 26 116 51 135 66 157 109 97
189 -21 28 -86 75 -94 68 -3 -4 -6 -1 -6 5 0 7 -7 12 -15 12 -8 0 -15 5 -15
10 0 6 -5 10 -11 10 -6 0 -37 15 -68 34 -61 37 -106 63 -161 92 -19 11 -37 21
-40 24 -6 6 -86 50 -117 65 -13 5 -23 13 -23 18 0 4 -4 7 -9 7 -8 0 -303 165
-341 190 -8 6 -27 15 -42 21 -16 6 -28 14 -28 18 0 3 -13 12 -30 19 -36 17
-37 26 -5 57 13 14 22 25 20 25 -2 0 72 78 165 173 220 225 407 417 404 417
-1 0 37 40 85 88 197 201 214 222 231 282 15 51 -25 100 -95 117 -59 15 -202
43 -245 48 -30 4 -57 8 -60 10 -3 2 -27 6 -55 9 -27 4 -68 11 -90 16 -35 8
-85 16 -150 25 -18 3 -35 6 -120 21 -16 3 -39 7 -50 9 -11 2 -33 6 -50 9 -28
6 -66 12 -125 22 -14 3 -47 9 -75 14 -27 5 -66 12 -85 14 -19 3 -46 8 -60 10
-35 6 -102 18 -120 20 -8 2 -28 6 -45 10 -16 3 -43 8 -60 11 -16 2 -43 7 -60
11 -16 4 -42 7 -57 8 -16 0 -28 3 -28 6 0 3 -8 6 -17 7 -10 1 -31 3 -48 6 -16
3 -38 5 -47 6 -10 0 -18 8 -18 16 0 19 49 95 61 95 5 0 9 7 9 15 0 8 5 15 10
15 6 0 10 6 10 13 0 6 12 23 25 36 14 12 22 27 19 32 -3 5 -1 9 5 9 6 0 29 26
52 57 23 31 48 64 55 72 7 9 33 43 58 76 25 33 50 65 56 72 5 7 10 17 10 23 0
6 5 8 10 5 6 -3 10 0 10 7 0 7 10 24 23 38 12 14 34 43 50 66 15 22 35 49 45
60 10 10 29 35 42 54 13 19 31 40 40 47 8 7 11 13 5 13 -5 0 1 7 13 16 12 8
22 21 22 27 0 7 15 28 33 47 80 88 104 164 67 216 -8 11 -55 53 -105 94 -105
85 -200 167 -226 194 -11 11 -19 16 -19 12 0 -4 -10 3 -22 14 -13 12 -36 31
-51 43 -15 12 -42 34 -59 50 -17 15 -38 27 -45 27 -7 0 -13 5 -13 11 0 6 -9 9
-20 6 -11 -3 -23 -1 -26 4 -3 6 -11 5 -20 -2 -8 -6 -14 -8 -14 -4 0 19 -39
-31 -66 -83 -15 -31 -33 -60 -39 -64 -5 -4 -7 -8 -3 -8 7 0 -20 -62 -43 -100
-22 -38 -73 -153 -71 -162 1 -5 -2 -8 -7 -8 -8 0 -24 -37 -22 -52 1 -5 -4 -8
-10 -8 -5 0 -7 -4 -4 -10 3 -5 1 -10 -4 -10 -6 0 -10 -3 -9 -7 1 -8 -19 -54
-108 -243 -163 -345 -201 -420 -212 -420 -6 0 -45 58 -46 70 -1 3 -6 12 -11
20 -5 8 -55 105 -111 216 -56 110 -107 210 -113 222 -6 12 -15 30 -20 40 -74
153 -178 345 -195 361 -41 39 -118 29 -171 -22 -7 -7 -41 -37 -75 -67 -35 -30
-76 -67 -92 -82 -16 -16 -33 -28 -38 -28 -6 0 -10 -7 -10 -16 0 -8 -4 -13 -8
-10 -5 3 -15 -3 -24 -12 -8 -9 -44 -42 -78 -72 -35 -30 -74 -64 -86 -75 -12
-11 -37 -31 -54 -45 -18 -14 -42 -35 -54 -46 -34 -33 -63 -46 -72 -33 -3 6 -8
39 -10 73 -2 33 -6 88 -9 121 -2 33 -7 101 -10 150 -3 50 -8 113 -10 140 -3
28 -7 79 -9 115 -3 36 -8 94 -11 130 -3 36 -7 97 -10 135 -11 177 -26 228 -70
241 -11 4 -21 7 -22 6 -2 0 -16 3 -32 8 -16 4 -31 6 -34 4z m-59 -238 c3 -6 7
-27 8 -46 2 -53 28 -423 39 -555 8 -92 16 -183 20 -225 10 -101 17 -190 20
-280 3 -52 6 -126 9 -165 2 -38 7 -117 11 -175 3 -58 8 -121 11 -140 10 -82
12 -210 3 -205 -5 4 -9 13 -9 21 0 8 -5 14 -12 14 -6 0 -9 3 -5 6 3 3 -3 29
-12 57 -10 29 -21 70 -25 92 -4 22 -12 46 -18 53 -6 6 -8 12 -5 12 3 0 1 15
-4 33 -11 34 -59 205 -63 222 -1 6 -15 51 -31 100 -16 50 -29 92 -30 95 -1 3
-7 25 -15 50 -17 58 -20 67 -34 128 -3 9 -11 42 -20 72 -8 30 -18 66 -21 80
-4 14 -9 32 -13 40 -3 8 -6 18 -7 23 -2 4 -4 10 -5 15 -1 4 -3 12 -5 17 -1 6
-3 12 -4 15 -2 3 -4 13 -7 23 -8 35 -11 43 -28 102 -10 33 -19 65 -21 70 -1 6
-6 18 -10 28 -4 10 -9 26 -10 35 -1 10 -4 24 -7 32 -3 8 -13 42 -23 75 -9 33
-21 72 -25 88 -5 15 -6 27 -3 27 3 0 1 6 -4 13 -9 11 -19 41 -29 90 -2 10 -6
28 -10 39 -4 12 -1 24 7 28 20 13 379 9 387 -4z m2251 -423 c6 -10 11 -15 11
-11 0 3 15 -8 33 -25 19 -18 53 -48 77 -67 24 -19 57 -46 74 -60 82 -66 88
-83 47 -126 -10 -11 -35 -44 -56 -74 -21 -30 -41 -57 -44 -60 -6 -4 -43 -52
-135 -175 -8 -11 -25 -33 -38 -50 -13 -16 -34 -46 -48 -65 -13 -19 -28 -39
-32 -45 -4 -5 -24 -30 -43 -55 -19 -25 -41 -52 -48 -60 -7 -8 -24 -31 -37 -50
-24 -35 -36 -50 -55 -73 -6 -7 -37 -48 -70 -92 -32 -44 -61 -82 -64 -85 -4 -3
-42 -52 -84 -110 -43 -58 -84 -114 -93 -125 -9 -11 -34 -46 -56 -77 -23 -32
-45 -58 -50 -58 -5 0 -6 -4 -3 -10 3 -5 2 -10 -3 -10 -5 0 -28 -27 -52 -60
-45 -62 -57 -71 -57 -45 0 8 4 15 9 15 4 0 7 3 6 8 -3 12 25 82 34 82 4 0 7 3
6 8 -1 4 10 30 24 59 14 28 24 54 21 57 -4 3 -2 6 4 6 6 0 13 9 16 20 8 31 8
32 34 78 13 23 20 42 16 42 -4 0 -3 4 3 8 8 6 53 91 59 112 1 3 17 37 35 75
40 84 36 75 45 103 4 12 11 22 16 22 5 0 8 3 8 8 -1 4 0 10 1 15 1 4 3 10 5
15 5 19 19 48 26 52 4 3 9 14 11 25 1 11 7 23 11 26 5 3 10 12 11 20 2 8 8 25
13 39 6 14 11 29 11 34 0 5 4 12 9 15 8 6 139 268 142 284 0 4 15 35 33 70 18
34 33 65 34 70 1 4 3 10 4 15 1 4 2 10 1 15 0 4 4 7 9 7 6 0 10 4 10 10 0 5
20 51 45 101 25 50 45 97 45 104 0 7 5 15 11 17 5 2 12 12 14 23 2 11 4 21 4
23 3 9 32 -1 40 -15z m-1295 -226 c7 -7 15 -17 17 -22 2 -6 21 -43 42 -82 20
-40 37 -76 36 -79 0 -4 3 -10 8 -13 11 -8 128 -244 125 -253 -1 -5 2 -8 7 -8
9 0 35 -58 32 -72 0 -5 3 -8 8 -8 9 0 35 -58 32 -72 0 -5 4 -8 11 -8 6 0 8 -3
5 -6 -4 -4 2 -19 12 -33 34 -49 121 -232 123 -259 2 -33 -22 -112 -34 -112 -5
0 -6 -4 -3 -10 3 -5 1 -10 -6 -10 -7 0 -10 -3 -6 -6 3 -3 -9 -34 -26 -68 -17
-33 -32 -63 -33 -66 0 -3 -18 -41 -39 -85 -22 -44 -39 -82 -40 -85 0 -3 -16
-36 -35 -75 -19 -38 -35 -72 -36 -75 -1 -3 -5 -15 -9 -27 -11 -35 -29 -34
-112 3 -108 49 -115 52 -143 59 -14 3 -41 10 -60 16 -86 22 -228 28 -382 16
l-78 -6 -1 27 c0 15 -2 38 -4 52 -6 37 -14 134 -20 225 -2 44 -7 105 -10 135
-2 30 -7 87 -10 125 -3 39 -8 104 -11 145 -11 133 -11 168 0 193 12 26 61 87
70 87 3 0 14 8 24 18 23 21 115 101 162 139 19 15 41 34 48 40 7 7 18 13 23
13 6 0 7 5 4 10 -3 6 1 10 9 10 9 0 16 4 16 9 0 5 15 19 34 32 19 13 32 27 30
31 -3 4 -1 8 5 8 6 0 24 13 41 30 16 16 30 27 30 25 0 -3 12 7 28 20 56 51 96
85 100 85 2 0 9 -6 16 -13z m-1717 -358 c60 -28 160 -76 223 -107 63 -31 118
-56 123 -54 4 1 7 -2 7 -8 0 -5 7 -10 15 -10 40 0 135 -74 135 -106 0 -8 4
-14 8 -14 5 0 9 -6 9 -12 0 -13 29 -122 40 -148 3 -8 7 -19 8 -25 2 -5 8 -28
14 -50 6 -22 10 -42 9 -45 -1 -3 4 -15 10 -26 6 -12 14 -35 17 -53 3 -17 12
-50 19 -74 12 -35 20 -63 41 -137 1 -3 7 -25 14 -50 6 -25 19 -62 26 -82 8
-21 12 -38 9 -38 -4 0 -1 -7 6 -15 7 -8 10 -15 7 -15 -3 0 3 -30 14 -67 22
-78 24 -114 7 -131 -7 -7 -9 -12 -5 -12 3 0 -13 -19 -36 -43 -58 -60 -108
-117 -102 -117 3 0 -5 -11 -16 -24 -12 -13 -20 -27 -19 -31 1 -4 -2 -11 -7
-14 -14 -10 -64 -91 -56 -91 5 0 4 -4 -2 -8 -17 -12 -71 -172 -58 -172 3 0 0
-7 -7 -15 -7 -8 -9 -15 -6 -15 4 0 2 -8 -3 -18 -7 -13 -6 -23 1 -30 7 -7 8
-12 2 -12 -16 0 -22 -149 -10 -227 4 -23 9 -55 11 -70 2 -15 6 -44 10 -63 20
-105 21 -130 9 -158 -7 -17 -22 -33 -33 -37 -12 -3 -21 -10 -21 -14 0 -4 -17
-13 -37 -20 -21 -8 -40 -17 -43 -20 -5 -6 -31 -21 -125 -69 -27 -14 -52 -29
-55 -32 -5 -6 -39 -21 -50 -22 -3 0 -13 -4 -23 -10 -49 -26 -125 -31 -477 -30
-561 1 -1280 11 -1290 17 -6 3 -10 3 -10 -2 0 -9 -169 -8 -178 2 -4 4 2 13 12
21 11 8 17 14 13 14 -4 0 15 19 41 43 25 23 58 53 73 67 14 14 54 50 88 80 35
30 90 81 122 112 32 31 59 56 59 54 0 -2 39 34 86 80 47 46 87 84 89 84 2 0
24 19 48 43 98 93 157 147 157 143 0 -2 19 15 43 38 93 89 249 231 258 234 5
2 9 10 9 18 0 8 3 14 8 14 4 0 19 10 33 23 27 23 169 151 223 201 17 16 73 67
125 115 212 193 211 192 217 400 16 590 27 877 33 889 5 9 45 -5 138 -49z
m2758 -903 c22 -4 56 -9 75 -12 19 -3 46 -7 60 -10 14 -2 37 -7 53 -9 74 -13
144 -26 172 -32 11 -2 34 -6 50 -8 57 -8 123 -21 128 -25 1 -1 13 -3 27 -5 64
-8 116 -16 131 -21 9 -2 34 -7 55 -10 22 -2 50 -7 64 -9 44 -9 94 -18 115 -21
11 -1 20 -3 20 -4 0 -1 14 -3 30 -5 17 -2 44 -6 60 -10 17 -3 44 -8 60 -10 17
-2 44 -6 60 -10 17 -4 44 -8 60 -10 17 -3 41 -7 55 -9 14 -3 41 -8 60 -11 19
-3 44 -8 55 -12 25 -9 31 -10 50 -12 36 -3 9 -46 -100 -156 -63 -64 -115 -118
-115 -119 0 -1 -64 -68 -142 -148 -164 -166 -422 -436 -468 -488 -54 -60 -55
-118 -3 -160 32 -27 97 -66 131 -79 17 -8 32 -17 32 -22 0 -5 7 -9 15 -9 8 0
24 -8 35 -17 11 -10 22 -16 24 -13 1 3 19 -7 39 -22 19 -16 38 -28 41 -28 2 0
43 -22 91 -50 48 -28 91 -50 96 -50 5 0 9 -5 9 -11 0 -5 4 -8 9 -5 5 3 14 -1
21 -9 7 -8 19 -15 26 -15 8 0 14 -4 14 -10 0 -5 5 -10 11 -10 13 0 326 -176
352 -198 9 -8 17 -20 17 -25 0 -6 -3 -7 -6 -4 -4 4 -19 -2 -34 -13 -16 -11
-33 -20 -39 -20 -11 0 -82 -31 -91 -40 -3 -3 -12 -6 -20 -8 -8 -2 -37 -15 -65
-29 -27 -13 -51 -24 -52 -24 -5 1 -39 -12 -93 -37 -55 -24 -100 -44 -110 -47
-12 -4 -60 -25 -125 -56 -38 -18 -76 -31 -82 -30 -7 1 -13 -3 -13 -9 0 -5 -11
-10 -25 -10 -14 0 -25 -4 -25 -10 0 -5 -5 -10 -10 -10 -6 0 -27 -7 -48 -17
-20 -9 -39 -17 -42 -18 -14 -5 -47 -18 -67 -25 -12 -5 -34 -7 -50 -4 -26 5
-132 52 -143 65 -3 3 -23 14 -45 26 -22 11 -69 36 -105 54 -36 19 -67 36 -70
39 -5 5 -40 24 -170 93 -36 18 -83 44 -105 57 -22 12 -76 42 -120 65 -96 50
-197 108 -257 148 -16 10 -28 15 -28 10 0 -4 -4 -3 -8 3 -4 6 -32 25 -62 42
-98 57 -96 54 -67 104 53 91 67 119 67 133 0 8 3 15 8 15 6 0 44 113 48 145 1
6 3 12 4 15 7 19 12 63 13 112 1 32 5 58 9 58 3 0 5 12 2 28 -2 15 -6 52 -8
82 -9 96 -31 189 -61 255 -47 105 -61 143 -59 168 3 26 15 44 124 185 25 32
56 73 70 92 40 53 74 95 83 98 4 2 7 10 7 18 0 8 5 14 10 14 6 0 10 7 10 16 0
8 5 12 10 9 6 -3 10 1 10 9 0 9 5 16 10 16 6 0 10 4 10 10 0 5 10 22 23 36 88
105 97 108 212 90z m-1250 -388 c30 -6 78 -19 95 -25 8 -4 17 -7 20 -8 20 -5
95 -45 144 -78 107 -72 224 -208 257 -299 7 -21 17 -38 23 -38 5 0 7 -3 3 -6
-3 -3 1 -23 8 -44 22 -61 28 -108 28 -215 0 -112 -3 -133 -32 -225 -11 -36
-19 -67 -18 -70 1 -3 -7 -18 -18 -35 -12 -16 -27 -43 -35 -58 -8 -15 -42 -57
-77 -93 -35 -36 -63 -69 -63 -75 0 -6 -4 -8 -8 -5 -4 3 -24 -10 -44 -27 -19
-18 -42 -33 -49 -35 -8 -2 -21 -10 -30 -18 -9 -8 -19 -11 -22 -7 -4 3 -7 2 -7
-4 0 -9 -11 -15 -55 -28 -5 -2 -30 -10 -55 -18 -111 -39 -343 -37 -433 2 -26
11 -48 19 -50 18 -1 -1 -13 8 -27 21 -13 12 -28 22 -33 22 -20 0 -145 97 -207
160 -56 56 -133 177 -132 207 0 4 -3 13 -7 18 -13 16 -28 80 -36 145 -2 19 -4
37 -5 40 -7 16 -4 140 3 140 5 0 5 5 2 10 -16 25 46 218 83 263 8 9 11 17 6
17 -5 0 -4 4 1 8 6 4 22 25 37 47 37 56 94 114 158 162 56 42 167 100 205 107
11 2 27 7 35 10 8 3 28 8 44 10 16 3 30 7 32 9 5 5 231 0 259 -5z m-921 -1300
c-6 -10 -4 -10 8 0 9 7 19 9 22 4 6 -10 -33 -51 -89 -92 -57 -42 -55 -41 -110
-85 -53 -43 -102 -86 -169 -150 -37 -36 -255 -214 -336 -275 -32 -25 -45 -35
-92 -75 -12 -11 -66 -56 -118 -100 -151 -128 -135 -114 -221 -187 -24 -20 -55
-46 -69 -58 -14 -12 -43 -36 -64 -53 -22 -18 -46 -39 -55 -47 -31 -29 -92 -73
-95 -69 -2 2 -32 60 -65 129 -34 69 -66 133 -71 142 -6 10 -10 25 -10 33 0 8
-4 15 -10 15 -5 0 -10 11 -10 24 0 17 9 27 33 37 17 7 53 25 80 41 26 15 47
25 47 22 0 -3 16 7 35 22 19 14 35 23 35 20 0 -4 12 1 28 12 15 10 47 29 72
41 69 35 154 82 168 94 6 5 12 6 12 3 0 -4 7 0 16 8 8 9 22 16 30 16 8 0 14 4
14 10 0 5 3 9 8 8 10 -3 116 53 124 66 4 6 8 7 8 3 0 -5 13 1 28 12 16 11 35
21 43 23 8 2 16 6 19 9 3 3 73 41 155 84 83 43 195 103 250 132 55 30 108 57
118 60 9 3 17 10 17 15 0 5 4 7 9 4 5 -3 14 1 21 9 7 8 19 15 26 15 8 0 14 5
14 12 0 6 3 8 7 5 3 -4 21 5 40 19 18 14 33 23 33 20 0 -3 15 3 33 13 39 24
40 24 31 9z m201 -168 c4 -6 11 -8 16 -5 5 4 9 1 9 -4 0 -6 9 -11 20 -11 11 0
20 -5 20 -11 0 -5 4 -8 9 -5 5 4 11 2 13 -2 5 -13 150 -80 231 -106 79 -27
116 -35 192 -42 62 -5 213 -1 223 6 1 2 5 3 10 4 71 16 89 20 97 21 6 0 19 6
30 12 11 6 23 11 28 11 19 2 177 86 177 95 0 6 3 7 7 4 3 -4 12 -2 19 4 11 9
32 -7 96 -69 126 -122 170 -163 224 -209 68 -57 181 -155 240 -208 13 -11 37
-30 53 -43 33 -26 90 -83 92 -91 2 -13 14 -176 23 -331 9 -133 17 -250 21
-315 3 -33 7 -94 10 -135 2 -41 7 -109 10 -150 5 -71 9 -122 20 -305 6 -94 6
-148 0 -154 -5 -4 -175 167 -175 176 0 2 -29 33 -64 68 -36 36 -63 65 -60 65
2 0 -15 20 -39 44 -23 23 -62 66 -87 93 -42 47 -213 232 -290 313 -19 20 -69
74 -110 120 -41 46 -91 100 -110 120 -19 21 -69 75 -110 120 -146 161 -163
171 -248 150 -23 -6 -51 -18 -62 -28 -12 -9 -23 -15 -27 -14 -3 2 -9 0 -12 -5
-3 -5 -55 -40 -116 -77 -60 -37 -173 -107 -250 -156 -77 -49 -146 -90 -152
-90 -7 0 -13 -4 -13 -8 0 -5 -12 -15 -27 -23 -15 -8 -54 -31 -85 -52 -31 -20
-62 -37 -68 -37 -5 0 -10 -4 -10 -9 0 -5 -8 -11 -17 -15 -10 -3 -30 -14 -45
-23 -14 -10 -48 -31 -75 -47 -26 -16 -50 -32 -53 -36 -3 -4 -15 -10 -27 -14
-13 -4 -23 -12 -23 -17 0 -5 -4 -9 -9 -9 -13 0 -144 -81 -153 -95 -4 -5 -8 -7
-8 -2 0 4 -26 -11 -59 -33 -32 -22 -61 -40 -64 -40 -5 0 -141 -84 -173 -107
-11 -8 -46 -29 -79 -48 -19 -10 -36 -20 -163 -102 -31 -21 -60 -36 -64 -35 -5
1 -8 -2 -8 -8 0 -5 -7 -10 -15 -10 -8 0 -15 -4 -15 -9 0 -9 -38 -22 -55 -18
-5 1 -8 7 -7 12 2 6 6 21 8 34 3 13 9 32 14 41 5 10 6 20 3 24 -3 3 0 6 7 6 7
0 11 3 8 6 -3 3 4 32 17 65 13 32 20 59 17 59 -4 0 -2 4 4 8 6 4 19 32 29 62
10 30 22 61 28 68 5 6 6 12 3 12 -4 0 -1 10 6 23 6 12 13 27 14 32 1 8 40 111
85 227 6 15 11 31 11 35 0 4 4 14 10 21 6 6 7 12 3 12 -4 0 -3 6 2 13 12 14
48 119 45 130 -1 4 2 7 7 7 5 0 12 12 16 28 17 71 80 222 111 268 37 55 91
109 166 166 26 20 44 39 41 42 -4 3 -1 6 6 6 7 0 18 6 25 13 31 29 76 67 76
63 0 -3 12 7 28 21 15 14 42 37 61 52 19 14 44 35 55 46 12 11 38 34 60 50 38
29 46 36 116 96 19 16 52 44 73 62 21 18 53 46 70 62 42 40 88 75 98 75 4 0
11 -5 14 -10z m1780 -280 c39 -20 88 -47 110 -59 22 -13 60 -35 85 -49 25 -14
77 -43 115 -66 39 -22 86 -49 105 -58 19 -10 51 -27 70 -39 19 -12 64 -37 100
-57 36 -19 81 -46 101 -58 20 -13 40 -20 43 -17 3 4 6 1 6 -5 0 -7 15 -18 33
-27 17 -8 52 -26 76 -40 24 -15 66 -38 92 -52 27 -14 52 -29 55 -34 3 -5 10
-7 15 -4 5 4 9 1 9 -4 0 -6 5 -11 11 -11 6 0 24 -9 40 -21 16 -11 29 -17 29
-12 0 4 4 4 8 -2 7 -10 23 -19 137 -79 33 -17 62 -33 65 -36 3 -3 14 -10 25
-16 11 -6 56 -30 100 -54 90 -48 135 -78 135 -88 0 -4 -59 -68 -130 -142 -81
-84 -136 -134 -146 -132 -9 2 -26 13 -39 25 -12 12 -44 40 -71 62 -26 22 -56
48 -66 58 -10 9 -23 17 -29 17 -5 0 -7 5 -4 10 3 6 2 10 -4 10 -5 0 -28 17
-50 38 -23 20 -55 48 -71 62 -17 14 -48 41 -69 60 -21 19 -60 53 -87 75 -26
22 -62 53 -78 68 -17 16 -48 43 -69 60 -105 86 -167 141 -196 170 -16 15 -31
27 -35 27 -4 0 -21 15 -40 33 -18 17 -61 57 -96 87 -35 30 -74 65 -87 78 -13
12 -26 22 -29 22 -3 0 -18 12 -33 28 -15 15 -46 42 -69 60 -22 18 -53 45 -69
60 -15 15 -39 36 -53 47 -14 11 -31 28 -39 38 -12 16 -12 17 5 10 10 -4 51
-23 89 -43z"/>
<path d="M945 2091 c-4 -3 -14 -6 -23 -7 -9 0 -30 -6 -47 -13 -16 -7 -34 -14
-40 -15 -23 -6 -65 -30 -65 -38 0 -4 -5 -8 -11 -8 -19 0 -103 -94 -132 -147
-62 -115 -70 -293 -17 -388 11 -19 17 -35 14 -35 -10 0 40 -65 85 -111 88 -89
189 -128 316 -123 44 2 89 5 100 7 49 9 163 64 175 85 5 9 10 13 10 7 0 -14
90 88 90 103 0 6 5 12 10 12 6 0 10 7 10 15 0 8 5 15 10 15 6 0 9 3 9 8 -1 4
0 10 1 15 1 4 3 10 5 15 1 4 4 14 8 22 12 30 23 106 22 145 -2 47 -15 126 -23
140 -4 6 -7 15 -8 21 -3 19 -69 117 -95 141 -51 48 -85 73 -96 73 -7 0 -13 5
-13 10 0 6 -9 10 -19 10 -11 0 -23 4 -26 10 -14 23 -231 50 -250 31z m140
-215 c11 -2 21 -5 23 -5 1 -1 3 0 5 2 9 7 91 -72 113 -110 32 -53 41 -148 18
-191 -8 -15 -14 -33 -14 -40 0 -20 -65 -78 -113 -100 -42 -20 -129 -24 -155
-8 -6 4 -16 5 -20 2 -8 -5 -42 18 -87 59 -12 11 -28 35 -36 53 -8 17 -16 32
-20 32 -12 0 -2 147 12 180 19 41 70 96 99 105 11 4 20 11 20 16 0 6 3 8 8 6
4 -3 16 -1 27 3 20 7 85 5 120 -4z"/>
<path d="M7130 1488 c-30 -10 -61 -20 -67 -20 -7 -1 -13 -5 -13 -9 0 -4 -9
-11 -20 -14 -21 -7 -106 -86 -128 -120 -31 -48 -71 -143 -76 -180 -11 -81 -9
-120 10 -205 8 -37 55 -130 65 -130 5 0 8 -4 7 -8 -4 -12 51 -70 97 -101 49
-34 132 -69 178 -76 34 -6 117 -9 127 -5 3 1 18 3 33 5 37 5 147 48 147 57 0
5 6 8 13 8 18 0 108 88 138 135 71 114 88 229 55 374 -28 123 -177 264 -318
300 -63 16 -188 11 -248 -11z m240 -213 c46 -24 96 -77 115 -122 31 -73 13
-180 -41 -239 -33 -35 -93 -76 -103 -70 -5 4 -12 2 -16 -4 -8 -13 -102 -11
-142 3 -39 15 -113 76 -113 94 0 7 -4 13 -10 13 -5 0 -9 3 -8 8 1 4 -4 19 -10
34 -15 37 -9 137 12 178 31 59 97 109 161 123 39 8 124 -2 155 -18z"/>
</g>
</svg>
