<?xml version="1.0" standalone="no"?>
<!DOCTYPE svg PUBLIC "-//W3C//DTD SVG 20010904//EN"
 "http://www.w3.org/TR/2001/REC-SVG-20010904/DTD/svg10.dtd">
<svg version="1.0" xmlns="http://www.w3.org/2000/svg"
 width="758.000000pt" height="758.000000pt" viewBox="0 0 758.000000 758.000000"
 preserveAspectRatio="xMidYMid meet">
<metadata>
Created by potrace 1.14, written by Peter Selinger 2001-2017
</metadata>
<g transform="translate(0.000000,758.000000) scale(0.100000,-0.100000)"
fill="#000000" stroke="none">
<path d="M2879 7480 c-196 -33 -336 -237 -300 -438 31 -173 168 -297 342 -310
217 -15 407 157 409 369 1 237 -215 419 -451 379z m135 -234 c74 -31 107 -133
70 -212 -49 -103 -220 -102 -269 3 -22 45 -16 123 12 161 41 56 120 76 187 48z"/>
<path d="M5920 6870 c-113 -24 -217 -108 -268 -218 -24 -51 -27 -69 -27 -162
1 -92 4 -112 27 -162 34 -73 107 -146 183 -184 55 -26 69 -29 165 -29 96 0
110 2 163 29 76 39 148 111 183 183 36 73 44 192 20 275 -31 106 -135 219
-235 253 -57 19 -155 26 -211 15z m136 -245 c113 -47 125 -181 21 -259 -37
-28 -116 -28 -153 0 -51 38 -69 71 -68 127 0 65 24 103 79 128 49 23 75 23
121 4z"/>
<path d="M2760 6661 c-267 -11 -277 -30 -190 -332 82 -281 240 -838 240 -844
0 -7 -67 24 -335 155 -126 62 -254 117 -282 123 -48 10 -56 9 -80 -9 -16 -12
-33 -37 -40 -56 -11 -33 -21 -248 -43 -892 -8 -235 -14 -306 -26 -332 -9 -18
-59 -73 -112 -121 -54 -48 -124 -113 -157 -143 -104 -97 -162 -150 -490 -451
-1110 -1018 -1099 -1008 -1111 -1055 -10 -41 8 -95 39 -118 28 -21 36 -21 919
-28 490 -4 892 -8 893 -10 2 -2 -161 -91 -361 -198 -201 -107 -381 -209 -401
-226 -32 -26 -36 -36 -36 -75 0 -48 21 -98 206 -480 140 -288 152 -291 409
-79 78 65 144 117 145 116 1 -1 -90 -247 -204 -546 -181 -481 -206 -552 -207
-607 -1 -48 3 -67 20 -90 20 -26 26 -28 87 -27 60 0 73 5 139 46 40 25 213
132 383 238 171 106 432 268 580 360 149 92 446 277 660 411 215 133 399 244
411 247 17 3 83 -64 335 -339 173 -188 327 -356 343 -373 16 -17 54 -59 85
-92 500 -545 566 -614 603 -629 60 -23 103 -20 127 11 23 29 53 117 46 137 -4
13 -5 32 -60 812 -39 556 -39 570 17 555 48 -14 35 -3 583 -480 143 -124 277
-240 300 -257 47 -39 94 -50 135 -33 39 16 475 465 507 522 7 13 12 40 13 60
0 29 -7 44 -32 69 -18 18 -157 100 -308 184 -427 236 -464 257 -473 264 -4 4
217 105 490 225 274 120 513 229 531 242 17 14 39 39 48 56 15 28 14 33 -8 76
-14 27 -42 60 -68 78 -25 18 -256 152 -513 299 l-468 267 83 87 c46 47 202
210 348 361 451 468 467 484 484 518 21 40 23 106 5 128 -24 30 -86 53 -195
73 -60 11 -329 59 -599 106 -625 109 -949 167 -954 171 -3 3 108 152 622 833
112 148 127 174 127 217 0 46 -29 81 -137 172 -60 49 -171 142 -248 206 -196
163 -238 180 -300 119 -28 -29 -25 -23 -308 -625 -254 -538 -249 -528 -258
-522 -5 3 -108 203 -230 446 -132 260 -236 454 -255 474 -25 27 -39 34 -70 34
-22 0 -51 -8 -64 -17 -23 -15 -136 -109 -168 -140 -35 -34 -436 -379 -447
-385 -14 -9 -11 -35 -55 552 -16 228 -35 438 -40 466 -7 32 -20 60 -36 75 -25
24 -29 24 -232 25 -114 0 -277 -2 -362 -5z m410 -243 c0 -2 29 -397 64 -878
35 -481 63 -876 61 -878 -1 -1 -9 23 -17 55 -9 32 -95 335 -192 673 -98 338
-202 701 -232 805 -30 105 -57 198 -60 208 -5 16 8 17 185 17 105 0 191 -1
191 -2z m2398 -547 c67 -57 122 -105 122 -108 0 -3 -55 -78 -122 -167 -190
-251 -379 -501 -568 -751 -417 -553 -393 -521 -367 -470 12 25 121 255 539
1145 27 58 90 192 140 298 l91 193 21 -19 c12 -10 76 -65 144 -121z m-1210
-552 c122 -240 222 -447 224 -461 2 -15 -50 -138 -141 -335 l-143 -310 -64 34
c-176 94 -397 132 -598 103 -38 -6 -71 -9 -73 -7 -5 6 -20 177 -43 488 -11
156 -23 300 -26 320 -9 62 15 99 132 200 59 52 193 169 298 261 146 127 194
164 202 155 7 -7 111 -208 232 -448z m-1743 -9 c181 -88 284 -144 289 -156 15
-38 159 -533 251 -863 15 -52 24 -105 20 -118 -3 -13 -36 -57 -73 -97 -111
-119 -198 -269 -237 -411 -26 -94 -31 -328 -10 -440 28 -143 30 -188 8 -206
-16 -15 -259 -149 -343 -190 -75 -36 -129 -39 -673 -38 -293 1 -703 5 -911 8
l-379 6 299 276 c164 151 306 282 314 290 52 49 284 263 390 359 69 62 157
143 195 179 39 36 115 107 170 156 338 306 325 287 331 495 2 74 9 288 14 475
6 187 13 359 16 383 6 37 9 42 27 36 11 -3 147 -68 302 -144z m2919 -871 c226
-38 562 -97 746 -130 184 -32 338 -59 343 -59 15 0 -20 -40 -130 -154 -778
-799 -779 -799 -749 -869 7 -19 27 -43 42 -54 28 -20 856 -493 923 -528 l35
-17 -25 -13 c-13 -7 -225 -99 -470 -204 -323 -138 -457 -191 -485 -191 -29 0
-69 17 -159 66 -66 37 -237 129 -380 206 -212 115 -433 239 -636 357 l-26 15
53 100 c29 56 65 142 80 191 25 81 28 105 28 250 1 178 -8 225 -71 375 -62
148 -73 117 152 415 108 143 210 272 226 288 19 17 40 27 61 27 17 0 216 -32
442 -71z m-1569 -335 c129 -33 278 -130 366 -238 228 -278 218 -673 -22 -930
-93 -100 -191 -164 -305 -202 -82 -27 -100 -29 -239 -29 -149 0 -151 0 -220
33 -146 69 -288 180 -355 277 -77 112 -110 213 -117 360 -6 142 11 229 73 355
40 81 61 109 139 186 123 123 238 180 409 204 76 11 193 4 271 -16z m-940
-1284 c-4 -6 -48 -41 -98 -79 -51 -38 -162 -131 -248 -207 -85 -77 -216 -186
-290 -243 -74 -58 -208 -168 -299 -246 -91 -77 -226 -192 -300 -254 -74 -63
-143 -121 -152 -129 -17 -14 -24 -3 -99 152 -54 111 -78 171 -72 177 12 12 98
59 898 487 662 354 658 352 663 352 2 0 0 -5 -3 -10z m315 -238 c194 -97 251
-113 425 -119 108 -4 156 -1 210 11 96 23 187 58 269 106 37 22 71 40 75 40 4
0 40 -34 81 -76 41 -42 188 -173 325 -291 138 -119 255 -221 262 -227 8 -7 18
-93 27 -236 61 -879 76 -1118 74 -1136 -3 -19 -85 66 -483 500 -655 713 -675
734 -711 746 -66 22 -104 8 -282 -103 -337 -210 -1646 -1022 -1709 -1060 l-33
-19 36 99 c83 231 376 1012 394 1049 30 67 65 100 404 383 176 148 357 301
401 339 44 39 82 70 85 69 3 -2 70 -35 150 -75z m1633 -212 c3 0 232 -127 509
-283 276 -156 628 -352 780 -436 l278 -154 -26 -31 c-15 -17 -73 -79 -131
-138 l-104 -108 -337 292 c-185 161 -384 333 -442 383 -58 50 -143 124 -190
164 -121 105 -348 302 -379 329 l-26 24 32 -21 c17 -12 33 -21 36 -21z"/>
<path d="M655 1906 c-85 -20 -147 -57 -216 -125 -145 -145 -177 -341 -87 -529
163 -342 666 -332 831 16 31 64 32 72 32 192 0 122 -1 127 -34 194 -39 79
-122 167 -198 208 -96 53 -223 70 -328 44z m226 -262 c24 -16 57 -51 74 -78
25 -42 30 -59 29 -110 -1 -70 -16 -105 -70 -159 -45 -45 -123 -72 -181 -61
-107 18 -193 116 -193 219 0 84 67 183 142 212 55 21 149 10 199 -23z"/>
<path d="M6900 1319 c-156 -30 -293 -163 -335 -324 -56 -217 43 -433 243 -533
75 -37 77 -37 196 -37 115 0 124 1 189 32 286 136 359 503 146 728 -113 120
-268 167 -439 134z m195 -243 c88 -42 135 -112 135 -203 -1 -158 -173 -269
-315 -204 -53 24 -111 90 -126 143 -50 187 133 346 306 264z"/>
</g>
</svg>
